name ./resultDataOpenSim/trcMotMarkerGrf/sub10/grf-01-06.mot
datacolumns 19
datarows 25
range 0.46400000 0.56000000
endheader

                time	     ground_force_vx	     ground_force_vy	     ground_force_vz	     ground_force_px	     ground_force_py	     ground_force_pz	   l_ground_force_vx	   l_ground_force_vy	   l_ground_force_vz	   l_ground_force_px	   l_ground_force_py	   l_ground_force_pz	     ground_torque_x	     ground_torque_y	     ground_torque_z	   l_ground_torque_x	   l_ground_torque_y	   l_ground_torque_z	
          0.46400000	         34.09340373	        499.64002073	        -32.76755360	         -0.78711632	          0.00000000	          0.04293469	          0.00000000	          0.00000000	          0.00000000	          0.00000000	          0.00000000	          0.00000000	          0.00000000	          2.19034911	          0.00000000	          0.00000000	          0.00000000	          0.00000000	
          0.46800000	         36.42677977	        510.96367125	        -34.14399169	         -0.78488201	          0.00000000	          0.04311685	          0.00000000	          0.00000000	          0.00000000	          0.00000000	          0.00000000	          0.00000000	          0.00000000	          2.11955226	          0.00000000	          0.00000000	          0.00000000	          0.00000000	
          0.47200000	         38.88255372	        522.84154729	        -35.57773246	         -0.78258371	          0.00000000	          0.04330950	          0.00000000	          0.00000000	          0.00000000	          0.00000000	          0.00000000	          0.00000000	          0.00000000	          2.04203082	          0.00000000	          0.00000000	          0.00000000	          0.00000000	
          0.47600000	         41.18248618	        535.31148561	        -37.03278889	         -0.78021797	          0.00000000	          0.04349917	          0.00000000	          0.00000000	          0.00000000	          0.00000000	          0.00000000	          0.00000000	          0.00000000	          1.96606739	          0.00000000	          0.00000000	          0.00000000	          0.00000000	
          0.48000000	         43.13917651	        548.39058773	        -38.48689653	         -0.77779430	          0.00000000	          0.04367859	          0.00000000	          0.00000000	          0.00000000	          0.00000000	          0.00000000	          0.00000000	          0.00000000	          1.89721572	          0.00000000	          0.00000000	          0.00000000	          0.00000000	
          0.48400000	         44.71903620	        562.04915534	        -39.93968356	         -0.77533212	          0.00000000	          0.04384624	          0.00000000	          0.00000000	          0.00000000	          0.00000000	          0.00000000	          0.00000000	          0.00000000	          1.83733462	          0.00000000	          0.00000000	          0.00000000	          0.00000000	
          0.48800000	         46.05329544	        576.20455998	        -41.41753234	         -0.77286490	          0.00000000	          0.04400287	          0.00000000	          0.00000000	          0.00000000	          0.00000000	          0.00000000	          0.00000000	          0.00000000	          1.78493831	          0.00000000	          0.00000000	          0.00000000	          0.00000000	
          0.49200000	         47.39533180	        590.73263671	        -42.96837067	         -0.77042925	          0.00000000	          0.04415016	          0.00000000	          0.00000000	          0.00000000	          0.00000000	          0.00000000	          0.00000000	          0.00000000	          1.73637502	          0.00000000	          0.00000000	          0.00000000	          0.00000000	
          0.49600000	         49.04255103	        605.49097567	        -44.64360550	         -0.76805448	          0.00000000	          0.04429008	          0.00000000	          0.00000000	          0.00000000	          0.00000000	          0.00000000	          0.00000000	          0.00000000	          1.68728344	          0.00000000	          0.00000000	          0.00000000	          0.00000000	
          0.50000000	         51.24791906	        620.35628720	        -46.47257376	         -0.76576411	          0.00000000	          0.04441978	          0.00000000	          0.00000000	          0.00000000	          0.00000000	          0.00000000	          0.00000000	          0.00000000	          1.63404487	          0.00000000	          0.00000000	          0.00000000	          0.00000000	
          0.50400000	         54.14759837	        635.26001681	        -48.44110055	         -0.76357766	          0.00000000	          0.04453016	          0.00000000	          0.00000000	          0.00000000	          0.00000000	          0.00000000	          0.00000000	          0.00000000	          1.57516523	          0.00000000	          0.00000000	          0.00000000	          0.00000000	
          0.50800000	         57.72895504	        650.19457125	        -50.48644480	         -0.76149276	          0.00000000	          0.04460840	          0.00000000	          0.00000000	          0.00000000	          0.00000000	          0.00000000	          0.00000000	          0.00000000	          1.51243404	          0.00000000	          0.00000000	          0.00000000	          0.00000000	
          0.51200000	         61.85040157	        665.19586185	        -52.50989594	         -0.75949743	          0.00000000	          0.04464090	          0.00000000	          0.00000000	          0.00000000	          0.00000000	          0.00000000	          0.00000000	          0.00000000	          1.45143002	          0.00000000	          0.00000000	          0.00000000	          0.00000000	
          0.51600000	         66.30215419	        680.32606883	        -54.39584460	         -0.75758994	          0.00000000	          0.04461386	          0.00000000	          0.00000000	          0.00000000	          0.00000000	          0.00000000	          0.00000000	          0.00000000	          1.40084360	          0.00000000	          0.00000000	          0.00000000	          0.00000000	
          0.52000000	         70.88281964	        695.65972749	        -56.03043795	         -0.75578201	          0.00000000	          0.04451601	          0.00000000	          0.00000000	          0.00000000	          0.00000000	          0.00000000	          0.00000000	          0.00000000	          1.37044592	          0.00000000	          0.00000000	          0.00000000	          0.00000000	
          0.52400000	         75.46857032	        711.26716623	        -57.31937952	         -0.75409856	          0.00000000	          0.04433738	          0.00000000	          0.00000000	          0.00000000	          0.00000000	          0.00000000	          0.00000000	          0.00000000	          1.36823078	          0.00000000	          0.00000000	          0.00000000	          0.00000000	
          0.52800000	         80.05572169	        727.19270745	        -58.20029628	         -0.75256879	          0.00000000	          0.04407166	          0.00000000	          0.00000000	          0.00000000	          0.00000000	          0.00000000	          0.00000000	          0.00000000	          1.39780358	          0.00000000	          0.00000000	          0.00000000	          0.00000000	
          0.53200000	         84.76317129	        743.43004191	        -58.64703946	         -0.75121555	          0.00000000	          0.04372116	          0.00000000	          0.00000000	          0.00000000	          0.00000000	          0.00000000	          0.00000000	          0.00000000	          1.45705755	          0.00000000	          0.00000000	          0.00000000	          0.00000000	
          0.53600000	         89.79671278	        759.89908934	        -58.67000595	         -0.75005403	          0.00000000	          0.04329573	          0.00000000	          0.00000000	          0.00000000	          0.00000000	          0.00000000	          0.00000000	          0.00000000	          1.53858242	          0.00000000	          0.00000000	          0.00000000	          0.00000000	
          0.54000000	         95.39030839	        776.43084087	        -58.31347874	         -0.74909131	          0.00000000	          0.04280862	          0.00000000	          0.00000000	          0.00000000	          0.00000000	          0.00000000	          0.00000000	          0.00000000	          1.63149452	          0.00000000	          0.00000000	          0.00000000	          0.00000000	
          0.54400000	        101.73974696	        792.77712745	        -57.64613560	         -0.74832176	          0.00000000	          0.04227382	          0.00000000	          0.00000000	          0.00000000	          0.00000000	          0.00000000	          0.00000000	          0.00000000	          1.72390014	          0.00000000	          0.00000000	          0.00000000	          0.00000000	
          0.54800000	        108.94277583	        808.64797175	        -56.74482647	         -0.74772762	          0.00000000	          0.04170221	          0.00000000	          0.00000000	          0.00000000	          0.00000000	          0.00000000	          0.00000000	          0.00000000	          1.80519303	          0.00000000	          0.00000000	          0.00000000	          0.00000000	
          0.55200000	        116.96189048	        823.74466570	        -55.67699748	         -0.74727594	          0.00000000	          0.04110066	          0.00000000	          0.00000000	          0.00000000	          0.00000000	          0.00000000	          0.00000000	          0.00000000	          1.86772257	          0.00000000	          0.00000000	          0.00000000	          0.00000000	
          0.55600000	        125.62314142	        837.76509472	        -54.48726520	         -0.74691744	          0.00000000	          0.04047468	          0.00000000	          0.00000000	          0.00000000	          0.00000000	          0.00000000	          0.00000000	          0.00000000	          1.90774397	          0.00000000	          0.00000000	          0.00000000	          0.00000000	
          0.56000000	        134.65313941	        850.40256455	        -53.19208375	         -0.74660191	          0.00000000	          0.03982974	          0.00000000	          0.00000000	          0.00000000	          0.00000000	          0.00000000	          0.00000000	          0.00000000	          1.92572552	          0.00000000	          0.00000000	          0.00000000	          0.00000000	
